<svg xmlns="http://www.w3.org/2000/svg" viewBox="0 0 240 150"><rect width="240" height="150" fill="none"/><path d="M34 88l23-34c7-11 18-17 31-17h65c14 0 26 8 33 20l18 31c10 3 16 13 16 24v11H22v-12c0-11 5-20 12-23z" fill="#f7f7f7" stroke="#555" stroke-width="3"/><path d="M75 56h43v30H54l17-25c1-2 3-5 4-5zM128 56h27c8 0 15 5 19 12l10 18h-56z" fill="#aee2ff"/><circle cx="67" cy="121" r="19" fill="#202020"/><circle cx="179" cy="121" r="19" fill="#202020"/><circle cx="67" cy="121" r="8" fill="#eee"/><circle cx="179" cy="121" r="8" fill="#eee"/></svg>
