<svg xmlns="http://www.w3.org/2000/svg" viewBox="0 0 1600 450" preserveAspectRatio="none"><defs><linearGradient id="sky" x1="0" y1="0" x2="0" y2="1"><stop stop-color="#dff1ff"/><stop offset="1" stop-color="#ffffff"/></linearGradient></defs><rect width="1600" height="450" fill="url(#sky)"/><path d="M620 170c70-120 290-145 410-35 70 64 125 78 210 93 89 15 180 56 225 116H450c42-65 97-102 170-174z" fill="#4f8f43"/><path d="M650 178c92-60 246-70 350-10 75 43 151 83 286 93 60 5 110 19 145 45H516c37-50 75-89 134-128z" fill="#77ae5f"/><g fill="#f7f0dc" stroke="#a67d57" stroke-width="2"><rect x="720" y="200" width="35" height="26"/><rect x="790" y="194" width="48" height="30"/><rect x="865" y="210" width="40" height="25"/><rect x="950" y="203" width="52" height="30"/><rect x="1040" y="218" width="43" height="26"/><rect x="1110" y="230" width="50" height="25"/><rect x="690" y="238" width="43" height="25"/><rect x="770" y="248" width="35" height="22"/><rect x="840" y="238" width="45" height="24"/><rect x="930" y="250" width="42" height="24"/><rect x="1004" y="244" width="46" height="26"/></g><path d="M0 370c180-25 300-10 480 0 210 12 350 50 560 28 240-25 370-35 560-10v62H0z" fill="#b7d588"/><path d="M820 380c230 7 410 3 780 25v45H700c30-35 70-58 120-70z" fill="#c69b6d"/><path d="M850 420C1090 370 1305 340 1600 358v40c-260-5-493 35-730 55z" fill="#cfcfcf"/><path d="M850 430C1090 382 1305 350 1600 368" stroke="#777" stroke-width="10" fill="none"/></svg>
