<svg xmlns="http://www.w3.org/2000/svg" viewBox="0 0 220 160"><rect width="220" height="160" fill="none"/><path d="M41 48h119c18 0 29 18 32 50l7 28H28V70c0-13 5-22 13-22z" fill="#096aa6"/><path d="M47 38h112c18 0 31 13 38 35H34c0-21 6-35 13-35z" fill="#141414"/><rect x="59" y="56" width="45" height="36" rx="4" fill="#dff6ff"/><rect x="116" y="56" width="42" height="36" rx="4" fill="#dff6ff"/><path d="M33 101h152" stroke="#f6c21a" stroke-width="8"/><circle cx="66" cy="124" r="19" fill="#222"/><circle cx="166" cy="124" r="19" fill="#222"/><circle cx="66" cy="124" r="8" fill="#eee"/><circle cx="166" cy="124" r="8" fill="#eee"/></svg>
